<svg width="57" height="72" viewBox="0 0 57 72" fill="none" xmlns="http://www.w3.org/2000/svg">
<path d="M28.5 42.5327C36.4968 42.5327 43 36.2537 43 28.5327C43 20.8117 36.4968 14.5327 28.5 14.5327C20.5032 14.5327 14 20.8117 14 28.5327C14 36.2537 20.5032 42.5327 28.5 42.5327ZM28.5 21.5327C32.4984 21.5327 35.75 24.6722 35.75 28.5327C35.75 32.3932 32.4984 35.5327 28.5 35.5327C24.5016 35.5327 21.25 32.3932 21.25 28.5327C21.25 24.6722 24.5016 21.5327 28.5 21.5327Z" fill="#0D5C63"/>
<path d="M26.4338 70.873C27.0367 71.3021 27.7591 71.5327 28.5 71.5327C29.2409 71.5327 29.9633 71.3021 30.5662 70.873C31.6492 70.1097 57.103 51.7951 56.9997 28.9329C56.9997 13.2738 44.214 0.532715 28.5 0.532715C12.786 0.532715 0.000313631 13.2738 0.000313631 28.9152C-0.102998 51.7951 25.3508 70.1097 26.4338 70.873ZM28.5 7.63277C40.2882 7.63277 49.8748 17.1859 49.8748 28.9507C49.9496 44.7057 34.2427 58.8526 28.5 63.4925C22.7609 58.849 7.05042 44.6986 7.12524 28.9329C7.12524 17.1859 16.7118 7.63277 28.5 7.63277Z" fill="#0D5C63"/>
</svg>
