<svg width="73" height="73" viewBox="0 0 73 73" fill="none" xmlns="http://www.w3.org/2000/svg">
<g clip-path="url(#clip0_964_17616)">
<path d="M70.3484 2.6947C69.9592 2.29174 69.4674 2.01275 68.9308 1.89052C68.3943 1.7683 67.8354 1.80792 67.3198 2.00474L3.8615 26.0035C3.31422 26.2194 2.84305 26.6033 2.51056 27.1043C2.17807 27.6053 2 28.1996 2 28.8084C2 29.4171 2.17807 30.0114 2.51056 30.5124C2.84305 31.0134 3.31422 31.3973 3.8615 31.6132L31.5524 43.1326L42.6287 71.9311C42.8368 72.4753 43.1935 72.9442 43.6548 73.28C44.1162 73.6159 44.6619 73.8039 45.2247 73.821C45.8077 73.8086 46.3733 73.6128 46.847 73.2593C47.3207 72.9059 47.6804 72.4114 47.8785 71.8411L70.9542 5.84454C71.1507 5.3138 71.1981 4.73589 71.0909 4.1782C70.9836 3.62051 70.7261 3.10601 70.3484 2.6947V2.6947ZM45.2247 62.4216L37.1771 41.4227L50.9937 27.0534L46.9266 22.8237L32.9946 37.3129L12.9187 28.8234L63.4834 9.83434L45.2247 62.4216Z" fill="white"/>
</g>
<defs>
<clipPath id="clip0_964_17616">
<rect width="72" height="72" fill="white" transform="translate(0.5 0.532715)"/>
</clipPath>
</defs>
</svg>
