<svg width="73" height="73" viewBox="0 0 73 73" fill="none" xmlns="http://www.w3.org/2000/svg">
<g clip-path="url(#clip0_964_17595)">
<path d="M56.929 39.5274C56.5775 39.1753 56.16 38.8959 55.7004 38.7053C55.2408 38.5148 54.7482 38.4166 54.2506 38.4166C53.7531 38.4166 53.2604 38.5148 52.8008 38.7053C52.3413 38.8959 51.9238 39.1753 51.5722 39.5274L45.5335 45.5661C42.7339 44.7327 37.5097 42.8385 34.1987 39.5274C30.8876 36.2164 28.9934 30.9922 28.16 28.1925L34.1987 22.1538C34.5508 21.8023 34.8301 21.3848 35.0207 20.9252C35.2113 20.4656 35.3094 19.973 35.3094 19.4754C35.3094 18.9779 35.2113 18.4852 35.0207 18.0256C34.8301 17.5661 34.5508 17.1486 34.1987 16.797L19.0451 1.64348C18.6936 1.29136 18.2761 1.01201 17.8165 0.821416C17.3569 0.630819 16.8642 0.532715 16.3667 0.532715C15.8692 0.532715 15.3765 0.630819 14.9169 0.821416C14.4573 1.01201 14.0398 1.29136 13.6883 1.64348L3.41418 11.9176C1.97459 13.3572 1.16387 15.3347 1.19418 17.3539C1.28131 22.7486 2.70954 41.486 17.4767 56.2532C32.2439 71.0203 50.9813 72.4448 56.3797 72.5357H56.4858C58.4861 72.5357 60.3765 71.7477 61.8085 70.3157L72.0826 60.0416C72.4347 59.69 72.7141 59.2725 72.9047 58.813C73.0953 58.3534 73.1934 57.8607 73.1934 57.3632C73.1934 56.8656 73.0953 56.373 72.9047 55.9134C72.7141 55.4538 72.4347 55.0363 72.0826 54.6848L56.929 39.5274ZM56.4479 64.9551C51.72 64.8755 35.5435 63.6064 22.8335 50.8926C10.0818 38.1409 8.84673 21.9076 8.77097 17.2744L16.3667 9.67866L26.1635 19.4754L21.2651 24.3738C20.8198 24.8188 20.4924 25.3677 20.3125 25.9709C20.1326 26.5741 20.1058 27.2127 20.2346 27.8288C20.3256 28.2645 22.5494 38.5955 28.8381 44.8842C35.1268 51.1729 45.4578 53.3967 45.8934 53.4876C46.5092 53.6201 47.1484 53.5955 47.7522 53.416C48.356 53.2366 48.9049 52.9082 49.3485 52.461L54.2506 47.5626L64.0474 57.3594L56.4479 64.9551V64.9551Z" fill="white"/>
</g>
<defs>
<clipPath id="clip0_964_17595">
<rect width="72" height="72" fill="white" transform="translate(0.5 0.532715)"/>
</clipPath>
</defs>
</svg>
